PathFileType	4	(X/Y/Z)	./resultDataOpenSim/trcMotMarkerGrf/sub06/qtm-03-06.trc
DataRate	CameraRate	NumFrames	NumMarkers	Units	OrigDataRate	OrigDataStartFrame	OrigNumFrames
250.000000	250.000000	15	24	m	250.000000	400	532
Frame#	Time	L.Toe.Tip			R.Toe.Tip			L.Ankle.Lat			R.Ankle.Lat			L.Ankle.Med			R.Ankle.Med			L.Heel			R.Heel			L.Knee.Lat			R.Knee.Lat			L.Knee.Med			R.Knee.Med			L.Thigh.Upper			R.Thigh.Upper			L.ASIS			R.ASIS			V.Sacral			L.Acromium			R.Acromium			C7			L.Elbow			R.Elbow			L.Wrist.Lat			R.Wrist.Lat
		X1	Y1	Z1	X2	Y2	Z2	X3	Y3	Z3	X4	Y4	Z4	X5	Y5	Z5	X6	Y6	Z6	X7	Y7	Z7	X8	Y8	Z8	X9	Y9	Z9	X10	Y10	Z10	X11	Y11	Z11	X12	Y12	Z12	X13	Y13	Z13	X14	Y14	Z14	X15	Y15	Z15	X16	Y16	Z16	X17	Y17	Z17	X18	Y18	Z18	X19	Y19	Z19	X20	Y20	Z20	X21	Y21	Z21	X22	Y22	Z22	X23	Y23	Z23	X24	Y24	Z24

400	1.596	1.5677823	0.13916457	-0.049259875	0.85377017	0.035279591	0.17020255	1.445167	0.1031798	-0.057621467	0.72593686	0.081942637	0.18726011	1.4463908	0.11705806	0.026032163	0.75367105	0.095160805	0.10027816	1.4033956	0.037737744	-0.010121431	0.66924039	0.070894143	0.12675245	1.3079547	0.44446332	-0.052503109	0.93484966	0.41629645	0.20893417	1.3002056	0.43144129	0.071938054	0.90596627	0.41758198	0.079351944	1.1031966	0.77546126	-0.090137212	1.0552218	0.75883807	0.2577174	1.166327	0.819018	-0.037661501	1.1633612	0.80577201	0.21199387	0.98024889	0.88887818	0.09157196	1.0631079	1.2926048	-0.098652137	1.1154541	1.2920639	0.26272852	1.0098487	1.3275571	0.092621755	0.94815914	1.005283	-0.13057438	1.144783	0.97270589	0.35522107	0.98150001	0.78057483	-0.21542768	1.3793475	0.94262185	0.27626208
401	1.6	1.5746321	0.13776137	-0.048717743	0.853928	0.035274231	0.17030661	1.4520499	0.10192998	-0.057037023	0.72700785	0.083485871	0.18773063	1.4529466	0.11592488	0.026561797	0.75471289	0.096564574	0.10073899	1.4100384	0.0366009	-0.0094810193	0.66999666	0.07342661	0.12738989	1.3154717	0.44393843	-0.052476408	0.93997294	0.41570477	0.20878036	1.3075466	0.43114096	0.071855272	0.91129543	0.41706554	0.079274546	1.110553	0.77442282	-0.090656922	1.061582	0.75754716	0.25719176	1.1735689	0.8175189	-0.037920172	1.1700459	0.80434608	0.21173203	0.98734114	0.88777095	0.091029045	1.0694445	1.2912543	-0.099536641	1.1219604	1.2909112	0.26185564	1.0162681	1.3262565	0.091815637	0.95405672	1.0041985	-0.13077411	1.1514309	0.97157705	0.35434149	0.98587638	0.77945184	-0.21608457	1.3857963	0.94097216	0.27515905
402	1.604	1.5809279	0.13589126	-0.047992	0.85409771	0.035265026	0.17044403	1.4583836	0.10035946	-0.05639616	0.72815091	0.085139533	0.18825485	1.4589851	0.11451106	0.02714262	0.75583637	0.098074669	0.10125306	1.415971	0.035263927	-0.0088115239	0.67084615	0.076103729	0.12807554	1.3230118	0.44344553	-0.052484954	0.9450142	0.41512093	0.20868158	1.3149617	0.4308583	0.07167972	0.91675016	0.41652969	0.079188818	1.1179304	0.77353537	-0.091219016	1.0680397	0.75629883	0.25667079	1.1808588	0.81610474	-0.038195789	1.1768129	0.80300575	0.21144412	0.99448254	0.88666597	0.090432265	1.0758774	1.2899521	-0.10046375	1.1284944	1.2898313	0.26093637	1.0227409	1.3250037	0.09091472	0.9600103	1.0031671	-0.13099174	1.1579747	0.97050788	0.35341266	0.99042564	0.77838405	-0.21671947	1.39217	0.93925784	0.27406936
403	1.608	1.5867114	0.1335738	-0.047053826	0.85427944	0.035251603	0.17061185	1.4641854	0.098492634	-0.05572775	0.72937019	0.086900275	0.18882728	1.4644975	0.11281294	0.027763114	0.75704888	0.099698011	0.10182791	1.4212225	0.033711868	-0.0081568749	0.67180226	0.078926352	0.12881005	1.330572	0.4430064	-0.052535058	0.94990746	0.41452679	0.2086594	1.3224194	0.43060605	0.071418424	0.9222722	0.41593136	0.079090218	1.12531	0.77280929	-0.091815791	1.074592	0.75509103	0.25614738	1.1882	0.81478505	-0.038486943	1.1836479	0.80175051	0.21112424	1.0016792	0.88557023	0.089841212	1.0823966	1.2887003	-0.1014405	1.1350545	1.2888251	0.25997036	1.029255	1.3237956	0.089940046	0.96601122	1.0021904	-0.13123741	1.1644238	0.96950237	0.35244266	0.99515236	0.77737887	-0.21733725	1.3984688	0.93747411	0.27299015
404	1.612	1.5920462	0.13084966	-0.045902809	0.85448049	0.03524008	0.17079143	1.4694719	0.096359153	-0.055061759	0.73067948	0.08876117	0.1894434	1.4694851	0.11084718	0.028402743	0.75835993	0.10142706	0.10246209	1.4258297	0.03194059	-0.0075421635	0.67290013	0.081883449	0.12957153	1.3381549	0.44263105	-0.052639567	0.95480246	0.41392243	0.20868854	1.3299024	0.43039943	0.071082749	0.92786912	0.41528862	0.078993099	1.1326983	0.77221939	-0.092436525	1.081225	0.75391574	0.25560409	1.1955955	0.81356954	-0.0387984	1.1905482	0.80057637	0.21076993	1.0089149	0.88450777	0.089266854	1.0889868	1.2875037	-0.10246522	1.1416419	1.2878919	0.25895768	1.0357988	1.3226354	0.08891838	0.97205704	1.0012632	-0.13151871	1.1708122	0.96857773	0.35145695	1.0000545	0.77642994	-0.21794527	1.4046967	0.93562537	0.27192049
405	1.616	1.5969714	0.12776811	-0.044567827	0.85471103	0.035237956	0.1709596	1.4742476	0.093980441	-0.054404693	0.73209401	0.090718321	0.1900974	1.4739631	0.10863814	0.029040709	0.75978883	0.10324152	0.10314159	1.4297908	0.030000296	-0.0069818722	0.67418254	0.084960407	0.13033064	1.345738	0.44230645	-0.052802416	0.95994788	0.41332316	0.2087168	1.3373976	0.43024554	0.070690758	0.93359059	0.41464127	0.07892326	1.1401317	0.77172142	-0.093070954	1.0879295	0.75276242	0.25503006	1.2030552	0.81246468	-0.039139053	1.1975181	0.79947378	0.21038239	1.0161755	0.88348475	0.088697001	1.0956458	1.2863644	-0.10352364	1.1482616	1.2870327	0.25789396	1.0423783	1.321523	0.087863387	0.97815636	1.0003809	-0.13183588	1.1772079	0.96777436	0.350502	1.0051253	0.77551946	-0.21854777	1.4108579	0.93372369	0.27086486
406	1.62	1.6014594	0.12437156	-0.043085217	0.85497656	0.035244864	0.17110969	1.4785129	0.091369103	-0.053738314	0.73362091	0.092771624	0.19078816	1.4779439	0.10619821	0.029668427	0.76136745	0.10512248	0.10384695	1.4330321	0.028027324	-0.0065103233	0.67566037	0.088157752	0.13108009	1.3532754	0.44200468	-0.053011097	0.96547185	0.41274256	0.2087148	1.3449003	0.43014429	0.070262268	0.93947693	0.41400346	0.078891537	1.1476439	0.77128581	-0.093713093	1.0947084	0.75162849	0.25443184	1.2105927	0.81147723	-0.039516437	1.2045481	0.79842915	0.20996659	1.0234579	0.88248498	0.088118986	1.1023789	1.285281	-0.10459964	1.1549205	1.2862496	0.25677412	1.0490152	1.3204465	0.086770275	0.98431837	0.99954379	-0.13218404	1.1836687	0.96712958	0.34961784	1.0103593	0.77463811	-0.21914398	1.4169518	0.93177716	0.26982995
407	1.624	1.6054555	0.12066573	-0.04147529	0.85527934	0.035254771	0.17125747	1.4822791	0.08854071	-0.053041119	0.73524883	0.094918239	0.19152504	1.481441	0.1035282	0.030297821	0.76312269	0.10706512	0.10456651	1.4354579	0.026227953	-0.0061712929	0.67725853	0.091512185	0.13188241	1.3607322	0.44170142	-0.053244026	0.97132849	0.41217992	0.20869309	1.3524237	0.43008552	0.069814104	0.94555607	0.41335926	0.078882255	1.1552535	0.77090098	-0.094350716	1.1015708	0.75051966	0.25382924	1.2182112	0.81061689	-0.039936581	1.2116117	0.79742508	0.20953809	1.0307666	0.88149377	0.087523105	1.1091851	1.2842501	-0.10568796	1.1616197	1.2855363	0.25560226	1.0557196	1.3193875	0.085622137	0.990545	0.99875303	-0.13255778	1.1901533	0.96661801	0.34878742	1.0157539	0.77379107	-0.21973237	1.4229734	0.92978691	0.26882092
408	1.628	1.609002	0.11655721	-0.039739417	0.85562216	0.035264232	0.17142464	1.4855772	0.085535443	-0.052307934	0.73696472	0.097145343	0.19231989	1.4845078	0.10065495	0.030966856	0.76504335	0.10908198	0.10531142	1.4370894	0.024804861	-0.0059412124	0.67886318	0.095073526	0.13283716	1.368098	0.44138071	-0.053482349	0.97741252	0.41162299	0.20867796	1.3599863	0.43003879	0.069361953	0.95185545	0.41268129	0.078866432	1.1629757	0.77055549	-0.094964163	1.1085265	0.7494357	0.2532373	1.2259008	0.80988914	-0.040397621	1.21868	0.79644177	0.20912715	1.0381102	0.88051159	0.086900703	1.1160554	1.283268	-0.10679501	1.1683486	1.2848756	0.2543925	1.06248	1.3183348	0.084407592	0.99683128	0.99800965	-0.13295739	1.1965413	0.96615752	0.3479439	1.0213067	0.77298362	-0.22031384	1.4289183	0.92775237	0.26784326
409	1.632	1.6123413	0.11178131	-0.037900801	0.85600552	0.035275464	0.17161833	1.4884823	0.082466328	-0.051564142	0.73878843	0.099440295	0.19316925	1.487302	0.097694901	0.031723309	0.76706684	0.11119605	0.10612034	1.4381658	0.023912848	-0.0056691671	0.68050225	0.098829872	0.13393592	1.3753673	0.44102396	-0.053709808	0.98365532	0.4110567	0.20868531	1.3675727	0.42994811	0.068921716	0.95838584	0.41194966	0.078830238	1.170816	0.77023012	-0.095539376	1.115588	0.74836208	0.25264726	1.2336512	0.80928758	-0.040878926	1.2257379	0.7954646	0.20876595	1.0454914	0.87955117	0.08624791	1.1229867	1.2823284	-0.10793134	1.175084	1.2842539	0.25315424	1.0692756	1.3172926	0.083132454	1.0031728	0.99731241	-0.1333906	1.2027626	0.96568986	0.34704033	1.0270145	0.77221293	-0.22088955	1.4347842	0.92567564	0.26690161
410	1.636	1.6159045	0.10594272	-0.036096594	0.85642717	0.035295733	0.1718295	1.4911741	0.079573839	-0.050869175	0.74076191	0.10180987	0.19405051	1.490139	0.094880334	0.032568091	0.76913099	0.11342249	0.10703389	1.4390798	0.023703452	-0.0051880524	0.68238019	0.10269921	0.13503557	1.3825266	0.44060359	-0.053901169	0.99003551	0.41046666	0.2087113	1.3750699	0.42973448	0.068504886	0.96512831	0.41116109	0.078780548	1.1787604	0.76990375	-0.096074331	1.1227803	0.74728249	0.25202637	1.2414544	0.80879932	-0.04134554	1.232803	0.79449873	0.20846069	1.0528992	0.87863886	0.085573483	1.1299835	1.2814247	-0.10910353	1.181802	1.2836699	0.25188607	1.0760826	1.3162825	0.081816253	1.0095738	0.99665479	-0.13386447	1.2088407	0.96521045	0.34607679	1.0328715	0.77147473	-0.22145848	1.4405703	0.92356269	0.26599538
411	1.64	1.6201228	0.098834977	-0.034643822	0.85688834	0.035333749	0.17205161	1.4939734	0.077189801	-0.050287627	0.74290453	0.10427552	0.19494416	1.4934456	0.092478855	0.033402163	0.77126678	0.11574519	0.10804953	1.44021	0.024301737	-0.004509386	0.68465314	0.10662915	0.13604547	1.3895721	0.44009659	-0.054016889	0.99655836	0.40984182	0.20873678	1.3822232	0.4293085	0.068113703	0.97205597	0.41032034	0.078724089	1.1867852	0.76957061	-0.096581752	1.130124	0.7461985	0.2513398	1.2492908	0.80841937	-0.041771613	1.2399274	0.79357583	0.20817388	1.060321	0.8778193	0.08489532	1.1370436	1.2805563	-0.11031177	1.1885067	1.283126	0.25059068	1.0828772	1.3153421	0.080477084	1.0160416	0.99602798	-0.13437912	1.2148267	0.96472914	0.34506858	1.0388704	0.77076855	-0.22202028	1.4462755	0.92141937	0.26512354
412	1.644	1.6251148	0.090878302	-0.033906611	0.85739685	0.035390767	0.17229068	1.4972486	0.075551933	-0.049842318	0.74522271	0.10685376	0.195858	1.497538	0.09063419	0.034057501	0.77360328	0.11812043	0.10911683	1.4417784	0.025645983	-0.0038299721	0.68729531	0.11065355	0.13703494	1.3965236	0.43950758	-0.054018078	1.0032459	0.40918085	0.20873772	1.3887726	0.42860648	0.067742874	0.97915445	0.40942268	0.078669734	1.194872	0.7692642	-0.097093541	1.137589	0.74513311	0.25057919	1.2571251	0.80815162	-0.042161374	1.2471594	0.79273742	0.20784355	1.0677591	0.87714006	0.084225289	1.1441554	1.2797283	-0.11155315	1.1952349	1.2826223	0.24928117	1.0896572	1.3145046	0.079113529	1.0225765	0.99542679	-0.13493219	1.2207573	0.96425002	0.34402501	1.0450062	0.77009289	-0.22257806	1.4518998	0.91924749	0.26429293
413	1.648	1.6305262	0.08307747	-0.033948359	0.8579618	0.035454306	0.17255186	1.501196	0.074603722	-0.049517538	0.74776335	0.10955248	0.19682184	1.5023488	0.089275156	0.034408198	0.77624786	0.12051756	0.11019304	1.4437966	0.027437375	-0.0033650848	0.69021664	0.11483888	0.13811817	1.4034305	0.43887703	-0.053897639	1.0101394	0.40849359	0.20869262	1.3947902	0.42764019	0.067386842	0.98642158	0.40844843	0.078641274	1.2030069	0.76906504	-0.09764984	1.1450992	0.74411339	0.24977577	1.2649216	0.80799654	-0.042546364	1.2544957	0.79200742	0.20742404	1.0752243	0.87661702	0.083562762	1.1513092	1.2789458	-0.112824	1.2020111	1.2821644	0.24797148	1.0964568	1.3137786	0.077710884	1.0291761	0.99484998	-0.13552378	1.2266436	0.96378308	0.34295207	1.0512789	0.76944128	-0.22313712	1.4574443	0.91704829	0.26351533
414	1.652	1.6357366	0.076315312	-0.034349984	0.85858895	0.035505897	0.17283098	1.5056692	0.074008582	-0.049319721	0.75061137	0.11237463	0.19785727	1.5073934	0.088193564	0.034455035	0.77920926	0.12294248	0.111284	1.4461066	0.02931927	-0.0032193475	0.69338727	0.11922462	0.13932925	1.4104001	0.43826732	-0.053700699	1.0172982	0.40779169	0.20859124	1.4007438	0.42650381	0.06704518	0.99387183	0.40737829	0.078660248	1.21117	0.76907378	-0.098270415	1.1526017	0.7431478	0.24898247	1.2726576	0.8079488	-0.042964743	1.2618837	0.79138411	0.20690451	1.0827148	0.87621996	0.082904513	1.1585047	1.2782113	-0.11411941	1.2088229	1.2817659	0.24667382	1.10332	1.3131591	0.076266947	1.0358423	0.99429678	-0.13615467	1.2324615	0.96335179	0.34185379	1.0576911	0.76880677	-0.22370087	1.4629084	0.914827	0.26279725
